<svg xmlns="http://www.w3.org/2000/svg" xmlns:xlink="http://www.w3.org/1999/xlink" width="22" height="22" viewBox="0 0 22 22">
    <defs>
        <circle id="a" cx="11" cy="11" r="9"/>
    </defs>
    <g fill="none" fill-rule="evenodd">
        <use fill="#00ADF2" xlink:href="#a"/>
        <circle cx="11" cy="11" r="10" stroke="#00ADF2" stroke-width="2"/>
        <path fill="#FFF" d="M13.194 6.39c-.258.261-.571.391-.939.391-.367 0-.682-.13-.943-.391a1.288 1.288 0 0 1-.392-.944c0-.367.13-.68.392-.938.261-.259.576-.388.943-.388.368 0 .68.13.939.388.258.257.387.57.387.938s-.13.683-.387.944m-1.57 10.679c-.562.542-1.163.813-1.802.813a1.55 1.55 0 0 1-.974-.333c-.287-.224-.43-.563-.43-1.022 0-.16.038-.416.116-.764.045-.2.112-.465.203-.794l1.218-4.45a3.29 3.29 0 0 0 .034-.156c.01-.052.015-.1.015-.145 0-.265-.025-.43-.192-.494-.168-.064-.404-.106-.858-.126v-.523c.454-.026.851-.079 1.559-.16.708-.08 1.18-.15 1.474-.207l.83-.165-1.545 5.642c-.13.484-.22.82-.265 1.007-.117.478-.177.787-.177.93 0 .141.032.233.096.275a.379.379 0 0 0 .213.062c.2 0 .449-.17.747-.512.297-.342.56-.7.786-1.075l.435.281c-.646.949-1.14 1.587-1.483 1.916M11 1.001C5.477 1.001 1 5.478 1 11.001c0 5.524 4.477 10 9.999 10s9.999-4.476 9.999-10c0-5.523-4.477-10-10-10"/>
    </g>
</svg>
